<svg width="22" height="22" viewBox="0 0 22 22" fill="none" xmlns="http://www.w3.org/2000/svg">
<mask id="mask0_45_6606" style="mask-type:alpha" maskUnits="userSpaceOnUse" x="0" y="0" width="22" height="21">
<path fill-rule="evenodd" clip-rule="evenodd" d="M0.29248 0.0732422H21.3474V20.9209H0.29248V0.0732422Z" fill="white"/>
</mask>
<g mask="url(#mask0_45_6606)">
<path fill-rule="evenodd" clip-rule="evenodd" d="M21.3472 10.5605C21.3472 4.76802 16.6336 0.0722656 10.8191 0.0722656C5.00459 0.0722656 0.291016 4.76802 0.291016 10.5605C0.291016 15.7955 4.14098 20.1346 9.17408 20.9214V13.5923H6.50094V10.5605H9.17408V8.24984C9.17408 5.62121 10.7458 4.16925 13.1507 4.16925C14.3025 4.16925 15.5074 4.37409 15.5074 4.37409V6.95519H14.1798C12.872 6.95519 12.4641 7.76367 12.4641 8.5931V10.5605H15.384L14.9172 13.5923H12.4641V20.9214C17.4972 20.1346 21.3472 15.7955 21.3472 10.5605Z" fill="#0F64C8"/>
</g>
<path fill-rule="evenodd" clip-rule="evenodd" d="M14.9173 13.5919L15.384 10.5602H12.4641V8.59276C12.4641 7.76333 12.872 6.95486 14.1799 6.95486H15.5074V4.37379C15.5074 4.37379 14.3026 4.16895 13.1507 4.16895C10.7459 4.16895 9.17412 5.6209 9.17412 8.2495V10.5602H6.50098V13.5919H9.17412V20.9209C9.71013 21.0047 10.2595 21.0483 10.8191 21.0483C11.3788 21.0483 11.9281 21.0047 12.4641 20.9209V13.5919H14.9173Z" fill="white"/>
</svg>
