<svg width="20" height="20" viewBox="0 0 20 20" fill="none" xmlns="http://www.w3.org/2000/svg">
<mask id="mask0_45_6647" style="mask-type:alpha" maskUnits="userSpaceOnUse" x="0" y="0" width="20" height="20">
<path fill-rule="evenodd" clip-rule="evenodd" d="M0.000488281 0H20.0002V20H0.000488281V0Z" fill="white"/>
</mask>
<g mask="url(#mask0_45_6647)">
<path fill-rule="evenodd" clip-rule="evenodd" d="M10.0005 0C7.28449 0 6.94349 0.012 5.87749 0.06C4.81349 0.109 4.08549 0.278 3.44949 0.525C2.79249 0.781 2.23449 1.123 1.67849 1.678C1.12249 2.234 0.780488 2.792 0.524488 3.45C0.277488 4.086 0.108488 4.812 0.0604883 5.877C0.0124883 6.944 0.000488281 7.284 0.000488281 10C0.000488281 12.716 0.0124883 13.057 0.0604883 14.123C0.108488 15.188 0.277488 15.914 0.524488 16.551C0.780488 17.208 1.12249 17.766 1.67849 18.321C2.23449 18.878 2.79249 19.22 3.44949 19.475C4.08549 19.723 4.81349 19.892 5.87749 19.939C6.94349 19.988 7.28449 20 10.0005 20C12.7165 20 13.0565 19.988 14.1235 19.939C15.1875 19.892 15.9145 19.723 16.5505 19.475C17.2085 19.22 17.7665 18.878 18.3215 18.321C18.8775 17.766 19.2195 17.208 19.4755 16.551C19.7225 15.914 19.8915 15.188 19.9395 14.123C19.9885 13.057 20.0005 12.716 20.0005 10C20.0005 7.284 19.9885 6.944 19.9395 5.877C19.8915 4.812 19.7225 4.086 19.4755 3.45C19.2195 2.792 18.8775 2.234 18.3215 1.678C17.7665 1.123 17.2085 0.781 16.5505 0.525C15.9145 0.278 15.1875 0.109 14.1235 0.06C13.0565 0.012 12.7165 0 10.0005 0ZM10.0005 1.802C12.6705 1.802 12.9865 1.812 14.0415 1.86C15.0165 1.905 15.5455 2.067 15.8975 2.205C16.3645 2.386 16.6975 2.603 17.0475 2.953C17.3975 3.302 17.6145 3.636 17.7955 4.102C17.9335 4.455 18.0955 4.984 18.1405 5.959C18.1885 7.014 18.1985 7.33 18.1985 10C18.1985 12.67 18.1885 12.986 18.1405 14.041C18.0955 15.016 17.9335 15.545 17.7955 15.897C17.6145 16.364 17.3975 16.697 17.0475 17.048C16.6975 17.397 16.3645 17.614 15.8975 17.796C15.5455 17.933 15.0165 18.096 14.0415 18.14C12.9865 18.188 12.6705 18.198 10.0005 18.198C7.32949 18.198 7.01449 18.188 5.95949 18.14C4.98449 18.096 4.45449 17.933 4.10249 17.796C3.63549 17.614 3.30249 17.397 2.95249 17.048C2.60349 16.697 2.38649 16.364 2.20449 15.897C2.06749 15.545 1.90449 15.016 1.85949 14.041C1.81249 12.986 1.80249 12.67 1.80249 10C1.80249 7.33 1.81249 7.014 1.85949 5.959C1.90449 4.984 2.06749 4.455 2.20449 4.102C2.38649 3.636 2.60349 3.302 2.95249 2.953C3.30249 2.603 3.63549 2.386 4.10249 2.205C4.45449 2.067 4.98449 1.905 5.95949 1.86C7.01449 1.812 7.33049 1.802 10.0005 1.802Z" fill="white"/>
</g>
<path fill-rule="evenodd" clip-rule="evenodd" d="M10.0003 13.3332C8.15926 13.3332 6.66626 11.8412 6.66626 10.0002C6.66626 8.15923 8.15926 6.66623 10.0003 6.66623C11.8413 6.66623 13.3333 8.15923 13.3333 10.0002C13.3333 11.8412 11.8413 13.3332 10.0003 13.3332ZM10.0003 4.86523C7.16426 4.86523 4.86426 7.16423 4.86426 10.0002C4.86426 12.8362 7.16426 15.1352 10.0003 15.1352C12.8363 15.1352 15.1353 12.8362 15.1353 10.0002C15.1353 7.16423 12.8363 4.86523 10.0003 4.86523Z" fill="white"/>
<path fill-rule="evenodd" clip-rule="evenodd" d="M16.5387 4.66191C16.5387 5.32491 16.0017 5.86191 15.3387 5.86191C14.6757 5.86191 14.1387 5.32491 14.1387 4.66191C14.1387 3.99891 14.6757 3.46191 15.3387 3.46191C16.0017 3.46191 16.5387 3.99891 16.5387 4.66191Z" fill="white"/>
</svg>
