<svg width="259" height="65" viewBox="0 0 259 65" fill="none" xmlns="http://www.w3.org/2000/svg">
<path d="M94.6074 57.5V43.2227H96.9414V55.498H102.986V57.5H94.6074ZM118.123 50.3418C118.123 52.666 117.54 54.4727 116.375 55.7617C115.216 57.0508 113.572 57.6953 111.443 57.6953C109.288 57.6953 107.632 57.0573 106.473 55.7812C105.32 54.4987 104.744 52.679 104.744 50.3223C104.744 47.9655 105.324 46.1556 106.482 44.8926C107.648 43.6296 109.308 42.998 111.463 42.998C113.585 42.998 115.226 43.6393 116.385 44.9219C117.544 46.2044 118.123 48.0111 118.123 50.3418ZM107.225 50.3418C107.225 52.0996 107.579 53.4342 108.289 54.3457C108.999 55.2507 110.05 55.7031 111.443 55.7031C112.83 55.7031 113.875 55.2539 114.578 54.3555C115.288 53.457 115.643 52.1191 115.643 50.3418C115.643 48.5905 115.291 47.2624 114.588 46.3574C113.891 45.4525 112.85 45 111.463 45C110.063 45 109.005 45.4525 108.289 46.3574C107.579 47.2624 107.225 48.5905 107.225 50.3418ZM123.523 49.8633H125.145C126.232 49.8633 127.02 49.6615 127.508 49.2578C127.996 48.8542 128.24 48.2552 128.24 47.4609C128.24 46.6536 127.977 46.0742 127.449 45.7227C126.922 45.3711 126.128 45.1953 125.066 45.1953H123.523V49.8633ZM123.523 51.7969V57.5H121.189V43.2227H125.223C127.065 43.2227 128.429 43.5677 129.314 44.2578C130.2 44.9479 130.643 45.9896 130.643 47.3828C130.643 49.1602 129.718 50.4264 127.869 51.1816L131.902 57.5H129.246L125.828 51.7969H123.523ZM142.059 57.5H133.982V43.2227H142.059V45.1953H136.316V49.082H141.697V51.0352H136.316V55.5176H142.059V57.5ZM151.326 57.5L147.186 45.5762H147.107C147.218 47.347 147.273 49.0072 147.273 50.5566V57.5H145.154V43.2227H148.445L152.41 54.5801H152.469L156.551 43.2227H159.852V57.5H157.605V50.4395C157.605 49.7298 157.622 48.8053 157.654 47.666C157.693 46.5267 157.726 45.8366 157.752 45.5957H157.674L153.387 57.5H151.326ZM168.807 57.5V43.2227H171.141V57.5H168.807ZM184.373 47.5391C184.373 49.0299 183.885 50.1725 182.908 50.9668C181.932 51.7611 180.542 52.1582 178.738 52.1582H177.254V57.5H174.92V43.2227H179.031C180.815 43.2227 182.15 43.5872 183.035 44.3164C183.927 45.0456 184.373 46.1198 184.373 47.5391ZM177.254 50.1953H178.494C179.692 50.1953 180.571 49.987 181.131 49.5703C181.691 49.1536 181.971 48.5026 181.971 47.6172C181.971 46.7969 181.72 46.1849 181.219 45.7812C180.717 45.3776 179.936 45.1758 178.875 45.1758H177.254V50.1953ZM195.457 53.623C195.457 54.8926 194.998 55.8887 194.08 56.6113C193.162 57.334 191.896 57.6953 190.281 57.6953C188.667 57.6953 187.345 57.4447 186.316 56.9434V54.7363C186.967 55.0423 187.658 55.2832 188.387 55.459C189.122 55.6348 189.806 55.7227 190.438 55.7227C191.362 55.7227 192.042 55.5469 192.479 55.1953C192.921 54.8438 193.143 54.3717 193.143 53.7793C193.143 53.2454 192.941 52.793 192.537 52.4219C192.133 52.0508 191.3 51.6113 190.037 51.1035C188.735 50.5762 187.817 49.974 187.283 49.2969C186.749 48.6198 186.482 47.806 186.482 46.8555C186.482 45.6641 186.906 44.7266 187.752 44.043C188.598 43.3594 189.734 43.0176 191.16 43.0176C192.527 43.0176 193.888 43.3171 195.242 43.916L194.5 45.8203C193.23 45.2865 192.098 45.0195 191.102 45.0195C190.346 45.0195 189.773 45.1855 189.383 45.5176C188.992 45.8431 188.797 46.276 188.797 46.8164C188.797 47.1875 188.875 47.5065 189.031 47.7734C189.188 48.0339 189.445 48.2812 189.803 48.5156C190.161 48.75 190.805 49.0592 191.736 49.4434C192.785 49.8796 193.553 50.2865 194.041 50.6641C194.529 51.0417 194.887 51.4681 195.115 51.9434C195.343 52.4186 195.457 52.9785 195.457 53.623ZM209.412 43.2227V52.4609C209.412 53.5156 209.184 54.4401 208.729 55.2344C208.279 56.0221 207.625 56.6309 206.766 57.0605C205.913 57.4837 204.891 57.6953 203.699 57.6953C201.928 57.6953 200.551 57.2266 199.568 56.2891C198.585 55.3516 198.094 54.0625 198.094 52.4219V43.2227H200.438V52.2559C200.438 53.4342 200.711 54.3034 201.258 54.8633C201.805 55.4232 202.645 55.7031 203.777 55.7031C205.978 55.7031 207.078 54.5475 207.078 52.2363V43.2227H209.412ZM219.236 57.5L215.096 45.5762H215.018C215.128 47.347 215.184 49.0072 215.184 50.5566V57.5H213.064V43.2227H216.355L220.32 54.5801H220.379L224.461 43.2227H227.762V57.5H225.516V50.4395C225.516 49.7298 225.532 48.8053 225.564 47.666C225.604 46.5267 225.636 45.8366 225.662 45.5957H225.584L221.297 57.5H219.236Z" fill="#4F5665"/>
<path d="M100.348 24.25C99.0643 24.25 97.956 24.1 97.0227 23.8C96.106 23.4833 95.356 23.0833 94.7727 22.6C94.1893 22.1 93.756 21.575 93.4727 21.025C93.1893 20.4583 93.0393 19.9167 93.0227 19.4C93.0227 19.25 93.0727 19.125 93.1727 19.025C93.2893 18.925 93.4227 18.875 93.5727 18.875H96.8477C97.031 18.875 97.181 18.9167 97.2977 19C97.4143 19.0667 97.5227 19.1833 97.6227 19.35C97.756 19.6667 97.9477 19.925 98.1977 20.125C98.4643 20.325 98.781 20.4667 99.1477 20.55C99.5143 20.6167 99.9143 20.65 100.348 20.65C101.198 20.65 101.856 20.4583 102.323 20.075C102.806 19.675 103.048 19.1333 103.048 18.45C103.048 17.7333 102.823 17.225 102.373 16.925C101.923 16.6083 101.281 16.45 100.448 16.45H97.6727C97.4893 16.45 97.3393 16.3917 97.2227 16.275C97.106 16.1583 97.0477 16.0083 97.0477 15.825V14.425C97.0477 14.225 97.0893 14.05 97.1727 13.9C97.256 13.75 97.3477 13.6417 97.4477 13.575L101.548 10.1H94.5977C94.431 10.1 94.281 10.0417 94.1477 9.925C94.031 9.80833 93.9727 9.65833 93.9727 9.475V7.125C93.9727 6.94167 94.031 6.79167 94.1477 6.675C94.281 6.55833 94.431 6.5 94.5977 6.5H106.098C106.281 6.5 106.431 6.55833 106.548 6.675C106.681 6.79167 106.748 6.94167 106.748 7.125V9.25C106.748 9.43333 106.706 9.6 106.623 9.75C106.539 9.88333 106.448 9.99167 106.348 10.075L102.548 13.6L102.723 13.65C103.689 13.7667 104.539 14.0167 105.273 14.4C106.023 14.7833 106.614 15.3333 107.048 16.05C107.481 16.75 107.698 17.6417 107.698 18.725C107.698 19.8583 107.373 20.8417 106.723 21.675C106.089 22.4917 105.223 23.125 104.123 23.575C103.023 24.025 101.764 24.25 100.348 24.25ZM117.177 24.25C115.977 24.25 114.935 24.0833 114.052 23.75C113.185 23.4 112.46 22.925 111.877 22.325C111.294 21.725 110.852 21.025 110.552 20.225C110.252 19.425 110.077 18.5667 110.027 17.65C110.01 17.2 109.994 16.6917 109.977 16.125C109.977 15.5417 109.977 14.9583 109.977 14.375C109.994 13.775 110.01 13.2417 110.027 12.775C110.077 11.8583 110.252 11.0083 110.552 10.225C110.869 9.425 111.319 8.73333 111.902 8.15C112.502 7.55 113.235 7.08333 114.102 6.75C114.985 6.41667 116.01 6.25 117.177 6.25C118.36 6.25 119.385 6.41667 120.252 6.75C121.135 7.08333 121.869 7.55 122.452 8.15C123.035 8.73333 123.485 9.425 123.802 10.225C124.119 11.0083 124.302 11.8583 124.352 12.775C124.369 13.2417 124.377 13.775 124.377 14.375C124.394 14.9583 124.394 15.5417 124.377 16.125C124.377 16.6917 124.369 17.2 124.352 17.65C124.302 18.5667 124.119 19.425 123.802 20.225C123.502 21.025 123.06 21.725 122.477 22.325C121.91 22.925 121.185 23.4 120.302 23.75C119.435 24.0833 118.394 24.25 117.177 24.25ZM117.177 20.625C118.044 20.625 118.669 20.35 119.052 19.8C119.452 19.2333 119.66 18.475 119.677 17.525C119.71 17.0417 119.727 16.5333 119.727 16C119.744 15.4667 119.744 14.9333 119.727 14.4C119.727 13.8667 119.71 13.375 119.677 12.925C119.66 12.0083 119.452 11.2667 119.052 10.7C118.669 10.1333 118.044 9.84167 117.177 9.825C116.327 9.84167 115.702 10.1333 115.302 10.7C114.919 11.2667 114.71 12.0083 114.677 12.925C114.677 13.375 114.669 13.8667 114.652 14.4C114.652 14.9333 114.652 15.4667 114.652 16C114.669 16.5333 114.677 17.0417 114.677 17.525C114.71 18.475 114.927 19.2333 115.327 19.8C115.727 20.35 116.344 20.625 117.177 20.625ZM132.269 23.175C132.086 23.175 131.936 23.1167 131.819 23C131.703 22.8667 131.644 22.7167 131.644 22.55V17.975H127.194C127.011 17.975 126.853 17.9167 126.719 17.8C126.603 17.6833 126.544 17.5333 126.544 17.35V15.525C126.544 15.3417 126.603 15.1917 126.719 15.075C126.853 14.9417 127.011 14.875 127.194 14.875H131.644V10.45C131.644 10.2667 131.703 10.1167 131.819 10C131.936 9.88333 132.086 9.825 132.269 9.825H134.319C134.486 9.825 134.628 9.88333 134.744 10C134.878 10.1167 134.944 10.2667 134.944 10.45V14.875H139.369C139.553 14.875 139.703 14.9417 139.819 15.075C139.936 15.1917 139.994 15.3417 139.994 15.525V17.35C139.994 17.5333 139.936 17.6833 139.819 17.8C139.703 17.9167 139.553 17.975 139.369 17.975H134.944V22.55C134.944 22.7167 134.878 22.8667 134.744 23C134.628 23.1167 134.486 23.175 134.319 23.175H132.269Z" fill="#0B132A"/>
<rect y="5" width="55.4342" height="55" rx="27.5" fill="#FFECEC"/>
<mask id="mask0_45_6460" style="mask-type:alpha" maskUnits="userSpaceOnUse" x="20" y="32" width="24" height="22">
<path fill-rule="evenodd" clip-rule="evenodd" d="M37.9223 32.0563C37.6428 32.0563 37.4166 32.2789 37.4166 32.5545V32.5545V35.0157C37.4166 35.4189 36.9573 35.6551 36.622 35.4252V35.4252L32.3793 32.5072C32.2058 32.3875 31.9748 32.3875 31.8013 32.5067V32.5067L20.8586 40.0315C20.6281 40.1901 20.5733 40.5046 20.7367 40.7303V40.7303L22.1131 42.6319C22.2749 42.8545 22.5868 42.908 22.8141 42.7516V42.7516L23.3171 42.4051V52.6336C23.3171 52.9093 23.5438 53.1324 23.8222 53.1324V53.1324H29.2917C29.5706 53.1324 29.7968 52.9093 29.7968 52.6336V52.6336V45.8328C29.7968 45.5572 30.0235 45.3335 30.303 45.3335V45.3335H33.876C34.1549 45.3335 34.3817 45.5572 34.3817 45.8328V45.8328V52.6336C34.3817 52.9093 34.6079 53.1324 34.8873 53.1324V53.1324H40.3557C40.6352 53.1324 40.8614 52.9093 40.8614 52.6336V52.6336V42.4051L41.3649 42.7516C41.5922 42.908 41.9046 42.8545 42.0654 42.6319V42.6319L43.4423 40.7303C43.6057 40.5046 43.5509 40.1901 43.3199 40.0315V40.0315L41.077 38.4886C40.9418 38.3956 40.8609 38.2423 40.8609 38.0796V38.0796V32.5545C40.8609 32.2789 40.6341 32.0563 40.3552 32.0563V32.0563H37.9223Z" fill="white"/>
</mask>
<g mask="url(#mask0_45_6460)">
<path fill-rule="evenodd" clip-rule="evenodd" d="M37.9223 32.0563C37.6428 32.0563 37.4166 32.2789 37.4166 32.5545V32.5545V35.0157C37.4166 35.4189 36.9573 35.6551 36.622 35.4252V35.4252L32.3793 32.5072C32.2058 32.3875 31.9748 32.3875 31.8013 32.5067V32.5067L20.8586 40.0315C20.6281 40.1901 20.5733 40.5046 20.7367 40.7303V40.7303L22.1131 42.6319C22.2749 42.8545 22.5868 42.908 22.8141 42.7516V42.7516L23.3171 42.4051V52.6336C23.3171 52.9093 23.5438 53.1324 23.8222 53.1324V53.1324H29.2917C29.5706 53.1324 29.7968 52.9093 29.7968 52.6336V52.6336V45.8328C29.7968 45.5572 30.0235 45.3335 30.303 45.3335V45.3335H33.876C34.1549 45.3335 34.3817 45.5572 34.3817 45.8328V45.8328V52.6336C34.3817 52.9093 34.6079 53.1324 34.8873 53.1324V53.1324H40.3557C40.6352 53.1324 40.8614 52.9093 40.8614 52.6336V52.6336V42.4051L41.3649 42.7516C41.5922 42.908 41.9046 42.8545 42.0654 42.6319V42.6319L43.4423 40.7303C43.6057 40.5046 43.5509 40.1901 43.3199 40.0315V40.0315L41.077 38.4886C40.9418 38.3956 40.8609 38.2423 40.8609 38.0796V38.0796V32.5545C40.8609 32.2789 40.6341 32.0563 40.3552 32.0563V32.0563H37.9223Z" fill="url(#paint0_linear_45_6460)"/>
</g>
<mask id="mask1_45_6460" style="mask-type:alpha" maskUnits="userSpaceOnUse" x="20" y="12" width="20" height="18">
<path fill-rule="evenodd" clip-rule="evenodd" d="M20.5181 12.0249H39.4744V29.2065H20.5181V12.0249Z" fill="white"/>
</mask>
<g mask="url(#mask1_45_6460)">
<path fill-rule="evenodd" clip-rule="evenodd" d="M22.6471 27.1065H37.3454V14.1248H36.1574V19.6137L30.7113 21.8234V19.442L25.615 21.9552V19.442L22.6471 20.9052V27.1065ZM39.4744 29.2065H20.5181V19.6074L27.744 16.0442V18.5574L32.8404 16.0442V18.6891L34.0284 18.2067V12.0248H39.4744V29.2065Z" fill="black"/>
</g>
<mask id="mask2_45_6460" style="mask-type:alpha" maskUnits="userSpaceOnUse" x="10" y="12" width="34" height="42">
<path fill-rule="evenodd" clip-rule="evenodd" d="M10.7227 53.1324H43.5364V12.0249H10.7227V53.1324Z" fill="white"/>
</mask>
<g mask="url(#mask2_45_6460)">
<path fill-rule="evenodd" clip-rule="evenodd" d="M23.9492 25.1809H26.6797V22.8724H23.9492V25.1809Z" fill="black"/>
<path fill-rule="evenodd" clip-rule="evenodd" d="M28.6309 25.1809H31.3619V22.8724H28.6309V25.1809Z" fill="black"/>
<path fill-rule="evenodd" clip-rule="evenodd" d="M33.312 25.1809H36.043V22.8724H33.312V25.1809Z" fill="black"/>
<path fill-rule="evenodd" clip-rule="evenodd" d="M21.4306 46.6197L16.363 43.7631V45.5691H13.5223C13.1524 45.5691 12.8517 45.2725 12.8517 44.9076V26.2864C12.8517 25.9215 13.1524 25.6249 13.5223 25.6249H19.1057V23.5249H13.5223C11.9783 23.5249 10.7227 24.7634 10.7227 26.2864V44.9076C10.7227 46.4307 11.9783 47.6691 13.5223 47.6691H16.363V49.4751L21.4306 46.6197Z" fill="black"/>
</g>
<defs>
<linearGradient id="paint0_linear_45_6460" x1="13.728" y1="43.964" x2="32.1282" y2="62.248" gradientUnits="userSpaceOnUse">
<stop stop-color="#FF7200"/>
<stop offset="1" stop-color="#FB9500"/>
</linearGradient>
</defs>
</svg>
