<svg width="246" height="65" viewBox="0 0 246 65" fill="none" xmlns="http://www.w3.org/2000/svg">
<path d="M93.8818 57.5V43.2227H96.2158V55.498H102.261V57.5H93.8818ZM117.397 50.3418C117.397 52.666 116.815 54.4727 115.649 55.7617C114.491 57.0508 112.847 57.6953 110.718 57.6953C108.563 57.6953 106.906 57.0573 105.747 55.7812C104.595 54.4987 104.019 52.679 104.019 50.3223C104.019 47.9655 104.598 46.1556 105.757 44.8926C106.922 43.6296 108.582 42.998 110.737 42.998C112.86 42.998 114.5 43.6393 115.659 44.9219C116.818 46.2044 117.397 48.0111 117.397 50.3418ZM106.499 50.3418C106.499 52.0996 106.854 53.4342 107.563 54.3457C108.273 55.2507 109.325 55.7031 110.718 55.7031C112.104 55.7031 113.149 55.2539 113.853 54.3555C114.562 53.457 114.917 52.1191 114.917 50.3418C114.917 48.5905 114.565 47.2624 113.862 46.3574C113.166 45.4525 112.124 45 110.737 45C109.338 45 108.28 45.4525 107.563 46.3574C106.854 47.2624 106.499 48.5905 106.499 50.3418ZM122.798 49.8633H124.419C125.506 49.8633 126.294 49.6615 126.782 49.2578C127.271 48.8542 127.515 48.2552 127.515 47.4609C127.515 46.6536 127.251 46.0742 126.724 45.7227C126.196 45.3711 125.402 45.1953 124.341 45.1953H122.798V49.8633ZM122.798 51.7969V57.5H120.464V43.2227H124.497C126.34 43.2227 127.703 43.5677 128.589 44.2578C129.474 44.9479 129.917 45.9896 129.917 47.3828C129.917 49.1602 128.993 50.4264 127.144 51.1816L131.177 57.5H128.521L125.103 51.7969H122.798ZM141.333 57.5H133.257V43.2227H141.333V45.1953H135.591V49.082H140.972V51.0352H135.591V55.5176H141.333V57.5ZM150.601 57.5L146.46 45.5762H146.382C146.493 47.347 146.548 49.0072 146.548 50.5566V57.5H144.429V43.2227H147.72L151.685 54.5801H151.743L155.825 43.2227H159.126V57.5H156.88V50.4395C156.88 49.7298 156.896 48.8053 156.929 47.666C156.968 46.5267 157 45.8366 157.026 45.5957H156.948L152.661 57.5H150.601ZM168.081 57.5V43.2227H170.415V57.5H168.081ZM183.647 47.5391C183.647 49.0299 183.159 50.1725 182.183 50.9668C181.206 51.7611 179.816 52.1582 178.013 52.1582H176.528V57.5H174.194V43.2227H178.306C180.09 43.2227 181.424 43.5872 182.31 44.3164C183.201 45.0456 183.647 46.1198 183.647 47.5391ZM176.528 50.1953H177.769C178.966 50.1953 179.845 49.987 180.405 49.5703C180.965 49.1536 181.245 48.5026 181.245 47.6172C181.245 46.7969 180.994 46.1849 180.493 45.7812C179.992 45.3776 179.211 45.1758 178.149 45.1758H176.528V50.1953ZM194.731 53.623C194.731 54.8926 194.272 55.8887 193.354 56.6113C192.437 57.334 191.17 57.6953 189.556 57.6953C187.941 57.6953 186.619 57.4447 185.591 56.9434V54.7363C186.242 55.0423 186.932 55.2832 187.661 55.459C188.397 55.6348 189.08 55.7227 189.712 55.7227C190.636 55.7227 191.317 55.5469 191.753 55.1953C192.196 54.8438 192.417 54.3717 192.417 53.7793C192.417 53.2454 192.215 52.793 191.812 52.4219C191.408 52.0508 190.575 51.6113 189.312 51.1035C188.009 50.5762 187.091 49.974 186.558 49.2969C186.024 48.6198 185.757 47.806 185.757 46.8555C185.757 45.6641 186.18 44.7266 187.026 44.043C187.873 43.3594 189.009 43.0176 190.435 43.0176C191.802 43.0176 193.162 43.3171 194.517 43.916L193.774 45.8203C192.505 45.2865 191.372 45.0195 190.376 45.0195C189.621 45.0195 189.048 45.1855 188.657 45.5176C188.267 45.8431 188.071 46.276 188.071 46.8164C188.071 47.1875 188.149 47.5065 188.306 47.7734C188.462 48.0339 188.719 48.2812 189.077 48.5156C189.435 48.75 190.08 49.0592 191.011 49.4434C192.059 49.8796 192.827 50.2865 193.315 50.6641C193.804 51.0417 194.162 51.4681 194.39 51.9434C194.618 52.4186 194.731 52.9785 194.731 53.623ZM208.687 43.2227V52.4609C208.687 53.5156 208.459 54.4401 208.003 55.2344C207.554 56.0221 206.899 56.6309 206.04 57.0605C205.187 57.4837 204.165 57.6953 202.974 57.6953C201.203 57.6953 199.826 57.2266 198.843 56.2891C197.86 55.3516 197.368 54.0625 197.368 52.4219V43.2227H199.712V52.2559C199.712 53.4342 199.985 54.3034 200.532 54.8633C201.079 55.4232 201.919 55.7031 203.052 55.7031C205.252 55.7031 206.353 54.5475 206.353 52.2363V43.2227H208.687ZM218.511 57.5L214.37 45.5762H214.292C214.403 47.347 214.458 49.0072 214.458 50.5566V57.5H212.339V43.2227H215.63L219.595 54.5801H219.653L223.735 43.2227H227.036V57.5H224.79V50.4395C224.79 49.7298 224.806 48.8053 224.839 47.666C224.878 46.5267 224.91 45.8366 224.937 45.5957H224.858L220.571 57.5H218.511Z" fill="#4F5665"/>
<path d="M100.223 24.275C98.656 24.275 97.3477 24.0333 96.2977 23.55C95.2477 23.05 94.4477 22.4083 93.8977 21.625C93.3643 20.825 93.081 19.9667 93.0477 19.05C93.0477 18.9 93.0977 18.775 93.1977 18.675C93.2977 18.575 93.4227 18.525 93.5727 18.525H96.9227C97.1393 18.525 97.306 18.5667 97.4227 18.65C97.556 18.7333 97.656 18.85 97.7227 19C97.8727 19.3833 98.0727 19.7 98.3227 19.95C98.5727 20.2 98.856 20.3833 99.1727 20.5C99.4893 20.6167 99.8477 20.675 100.248 20.675C100.714 20.675 101.148 20.575 101.548 20.375C101.948 20.175 102.264 19.8833 102.498 19.5C102.748 19.1 102.873 18.625 102.873 18.075C102.873 17.575 102.756 17.1417 102.523 16.775C102.306 16.4083 101.998 16.1167 101.598 15.9C101.214 15.6833 100.764 15.575 100.248 15.575C99.8477 15.575 99.5227 15.625 99.2727 15.725C99.0227 15.8083 98.8143 15.9167 98.6477 16.05C98.481 16.1833 98.331 16.3 98.1977 16.4C98.0643 16.4833 97.9143 16.525 97.7477 16.525H94.4727C94.3227 16.525 94.1893 16.475 94.0727 16.375C93.9727 16.2583 93.9227 16.125 93.9227 15.975L94.8227 7.25C94.856 7 94.9477 6.81667 95.0977 6.7C95.2477 6.56667 95.431 6.5 95.6477 6.5H105.673C105.856 6.5 106.006 6.55833 106.123 6.675C106.256 6.79167 106.323 6.94167 106.323 7.125V9.475C106.323 9.65833 106.256 9.80833 106.123 9.925C106.006 10.0417 105.856 10.1 105.673 10.1H98.4227L98.0977 13.325C98.4643 13.0917 98.8893 12.8917 99.3727 12.725C99.8727 12.5583 100.556 12.475 101.423 12.475C102.206 12.475 102.956 12.6167 103.673 12.9C104.406 13.1667 105.056 13.55 105.623 14.05C106.206 14.55 106.656 15.15 106.973 15.85C107.306 16.5333 107.473 17.3083 107.473 18.175C107.473 19.3583 107.181 20.4083 106.598 21.325C106.031 22.2417 105.206 22.9667 104.123 23.5C103.039 24.0167 101.739 24.275 100.223 24.275ZM116.86 24.25C115.66 24.25 114.618 24.0833 113.735 23.75C112.868 23.4 112.143 22.925 111.56 22.325C110.976 21.725 110.535 21.025 110.235 20.225C109.935 19.425 109.76 18.5667 109.71 17.65C109.693 17.2 109.676 16.6917 109.66 16.125C109.66 15.5417 109.66 14.9583 109.66 14.375C109.676 13.775 109.693 13.2417 109.71 12.775C109.76 11.8583 109.935 11.0083 110.235 10.225C110.551 9.425 111.001 8.73333 111.585 8.15C112.185 7.55 112.918 7.08333 113.785 6.75C114.668 6.41667 115.693 6.25 116.86 6.25C118.043 6.25 119.068 6.41667 119.935 6.75C120.818 7.08333 121.551 7.55 122.135 8.15C122.718 8.73333 123.168 9.425 123.485 10.225C123.801 11.0083 123.985 11.8583 124.035 12.775C124.051 13.2417 124.06 13.775 124.06 14.375C124.076 14.9583 124.076 15.5417 124.06 16.125C124.06 16.6917 124.051 17.2 124.035 17.65C123.985 18.5667 123.801 19.425 123.485 20.225C123.185 21.025 122.743 21.725 122.16 22.325C121.593 22.925 120.868 23.4 119.985 23.75C119.118 24.0833 118.076 24.25 116.86 24.25ZM116.86 20.625C117.726 20.625 118.351 20.35 118.735 19.8C119.135 19.2333 119.343 18.475 119.36 17.525C119.393 17.0417 119.41 16.5333 119.41 16C119.426 15.4667 119.426 14.9333 119.41 14.4C119.41 13.8667 119.393 13.375 119.36 12.925C119.343 12.0083 119.135 11.2667 118.735 10.7C118.351 10.1333 117.726 9.84167 116.86 9.825C116.01 9.84167 115.385 10.1333 114.985 10.7C114.601 11.2667 114.393 12.0083 114.36 12.925C114.36 13.375 114.351 13.8667 114.335 14.4C114.335 14.9333 114.335 15.4667 114.335 16C114.351 16.5333 114.36 17.0417 114.36 17.525C114.393 18.475 114.61 19.2333 115.01 19.8C115.41 20.35 116.026 20.625 116.86 20.625ZM131.952 23.175C131.769 23.175 131.619 23.1167 131.502 23C131.385 22.8667 131.327 22.7167 131.327 22.55V17.975H126.877C126.694 17.975 126.535 17.9167 126.402 17.8C126.285 17.6833 126.227 17.5333 126.227 17.35V15.525C126.227 15.3417 126.285 15.1917 126.402 15.075C126.535 14.9417 126.694 14.875 126.877 14.875H131.327V10.45C131.327 10.2667 131.385 10.1167 131.502 10C131.619 9.88333 131.769 9.825 131.952 9.825H134.002C134.169 9.825 134.31 9.88333 134.427 10C134.56 10.1167 134.627 10.2667 134.627 10.45V14.875H139.052C139.235 14.875 139.385 14.9417 139.502 15.075C139.619 15.1917 139.677 15.3417 139.677 15.525V17.35C139.677 17.5333 139.619 17.6833 139.502 17.8C139.385 17.9167 139.235 17.975 139.052 17.975H134.627V22.55C134.627 22.7167 134.56 22.8667 134.427 23C134.31 23.1167 134.169 23.175 134.002 23.175H131.952Z" fill="#0B132A"/>
<rect y="5" width="55.4342" height="55" rx="27.5" fill="#FFECEC"/>
<mask id="mask0_45_6469" style="mask-type:alpha" maskUnits="userSpaceOnUse" x="19" y="26" width="18" height="14">
<path fill-rule="evenodd" clip-rule="evenodd" d="M33.2251 26.7961L25.9852 34.5236L22.5324 31.451C22.1701 31.1283 21.6139 31.1595 21.2901 31.5212V31.5212L20.0526 32.9042C19.7274 33.2678 19.7592 33.8257 20.1241 34.1502V34.1502L24.8919 38.3889L25.6876 39.0929C25.9797 39.3514 26.424 39.3312 26.6911 39.0477V39.0477L27.4177 38.2752L35.8632 29.2675C36.1957 28.9124 36.1779 28.3538 35.8223 28.0214V28.0214L34.4699 26.7564C34.3 26.5969 34.0837 26.5181 33.8679 26.5181V26.5181C33.6333 26.5181 33.3986 26.6116 33.2251 26.7961" fill="white"/>
</mask>
<g mask="url(#mask0_45_6469)">
<path fill-rule="evenodd" clip-rule="evenodd" d="M33.2251 26.7961L25.9852 34.5236L22.5324 31.451C22.1701 31.1283 21.6139 31.1595 21.2901 31.5212V31.5212L20.0526 32.9042C19.7274 33.2678 19.7592 33.8257 20.1241 34.1502V34.1502L24.8919 38.3889L25.6876 39.0929C25.9797 39.3514 26.424 39.3312 26.6911 39.0477V39.0477L27.4177 38.2752L35.8632 29.2675C36.1957 28.9124 36.1779 28.3538 35.8223 28.0214V28.0214L34.4699 26.7564C34.3 26.5969 34.0837 26.5181 33.8679 26.5181V26.5181C33.6333 26.5181 33.3986 26.6116 33.2251 26.7961" fill="url(#paint0_linear_45_6469)"/>
</g>
<path fill-rule="evenodd" clip-rule="evenodd" d="M27.9646 21.5328C21.8987 21.5328 16.964 26.4675 16.964 32.534C16.964 38.6005 21.8987 43.5353 27.9646 43.5353C34.0311 43.5353 38.9658 38.6005 38.9658 32.534C38.9658 26.4675 34.0311 21.5328 27.9646 21.5328M27.9646 45.9797C20.5512 45.9797 14.5195 39.948 14.5195 32.534C14.5195 25.12 20.5512 19.0884 27.9646 19.0884C35.3786 19.0884 41.4103 25.12 41.4103 32.534C41.4103 39.948 35.3786 45.9797 27.9646 45.9797" fill="black"/>
<mask id="mask1_45_6469" style="mask-type:alpha" maskUnits="userSpaceOnUse" x="5" y="11" width="45" height="43">
<path fill-rule="evenodd" clip-rule="evenodd" d="M5.99707 11.1113H49.9323V53.9568H5.99707V11.1113Z" fill="white"/>
</mask>
<g mask="url(#mask1_45_6469)">
<path fill-rule="evenodd" clip-rule="evenodd" d="M27.9647 48.5632L32.1331 50.7974L34.921 46.981L39.643 47.1784L40.4986 42.5278L44.843 40.6621L43.5969 36.1038L46.6952 32.5343L43.5969 28.9642L44.843 24.4059L40.4992 22.5408L39.643 17.8897L34.9203 18.087L32.1331 14.2707L27.9647 16.5049L23.7969 14.2707L21.009 18.087L16.287 17.8897L15.4314 22.5402L11.087 24.4059L12.3331 28.9642L9.23413 32.5343L12.3331 36.1038L11.087 40.6621L15.4308 42.5272L16.2863 47.1784L21.0096 46.981L23.7969 50.7974L27.9647 48.5632ZM32.853 53.9568L27.9647 51.337L23.077 53.9568L19.8057 49.478L14.266 49.709L13.2632 44.2566L8.16774 42.0695L9.63074 36.7198L5.99707 32.5343L9.63074 28.3482L8.16774 22.9985L13.2638 20.8108L14.2666 15.359L19.8057 15.59L23.077 11.1112L27.9647 13.731L32.853 11.1112L36.1242 15.59L41.6634 15.359L42.6668 20.8114L47.7622 22.9985L46.2992 28.3482L49.9323 32.5343L46.2992 36.7198L47.7622 42.0695L42.6662 44.2573L41.6634 49.709L36.1242 49.478L32.853 53.9568Z" fill="black"/>
</g>
<defs>
<linearGradient id="paint0_linear_45_6469" x1="19.8281" y1="39.2744" x2="36.1014" y2="39.2744" gradientUnits="userSpaceOnUse">
<stop stop-color="#FF7200"/>
<stop offset="1" stop-color="#FB9500"/>
</linearGradient>
</defs>
</svg>
