<svg width="235" height="64" viewBox="0 0 235 64" fill="none" xmlns="http://www.w3.org/2000/svg">
<path d="M94.166 57V42.7227H96.5V54.998H102.545V57H94.166ZM117.682 49.8418C117.682 52.166 117.099 53.9727 115.934 55.2617C114.775 56.5508 113.131 57.1953 111.002 57.1953C108.847 57.1953 107.19 56.5573 106.031 55.2812C104.879 53.9987 104.303 52.179 104.303 49.8223C104.303 47.4655 104.882 45.6556 106.041 44.3926C107.206 43.1296 108.867 42.498 111.021 42.498C113.144 42.498 114.785 43.1393 115.943 44.4219C117.102 45.7044 117.682 47.5111 117.682 49.8418ZM106.783 49.8418C106.783 51.5996 107.138 52.9342 107.848 53.8457C108.557 54.7507 109.609 55.2031 111.002 55.2031C112.389 55.2031 113.434 54.7539 114.137 53.8555C114.846 52.957 115.201 51.6191 115.201 49.8418C115.201 48.0905 114.85 46.7624 114.146 45.8574C113.45 44.9525 112.408 44.5 111.021 44.5C109.622 44.5 108.564 44.9525 107.848 45.8574C107.138 46.7624 106.783 48.0905 106.783 49.8418ZM123.082 49.3633H124.703C125.79 49.3633 126.578 49.1615 127.066 48.7578C127.555 48.3542 127.799 47.7552 127.799 46.9609C127.799 46.1536 127.535 45.5742 127.008 45.2227C126.48 44.8711 125.686 44.6953 124.625 44.6953H123.082V49.3633ZM123.082 51.2969V57H120.748V42.7227H124.781C126.624 42.7227 127.988 43.0677 128.873 43.7578C129.758 44.4479 130.201 45.4896 130.201 46.8828C130.201 48.6602 129.277 49.9264 127.428 50.6816L131.461 57H128.805L125.387 51.2969H123.082ZM141.617 57H133.541V42.7227H141.617V44.6953H135.875V48.582H141.256V50.5352H135.875V55.0176H141.617V57ZM150.885 57L146.744 45.0762H146.666C146.777 46.847 146.832 48.5072 146.832 50.0566V57H144.713V42.7227H148.004L151.969 54.0801H152.027L156.109 42.7227H159.41V57H157.164V49.9395C157.164 49.2298 157.18 48.3053 157.213 47.166C157.252 46.0267 157.285 45.3366 157.311 45.0957H157.232L152.945 57H150.885ZM168.365 57V42.7227H170.699V57H168.365ZM183.932 47.0391C183.932 48.5299 183.443 49.6725 182.467 50.4668C181.49 51.2611 180.1 51.6582 178.297 51.6582H176.812V57H174.479V42.7227H178.59C180.374 42.7227 181.708 43.0872 182.594 43.8164C183.486 44.5456 183.932 45.6198 183.932 47.0391ZM176.812 49.6953H178.053C179.251 49.6953 180.13 49.487 180.689 49.0703C181.249 48.6536 181.529 48.0026 181.529 47.1172C181.529 46.2969 181.279 45.6849 180.777 45.2812C180.276 44.8776 179.495 44.6758 178.434 44.6758H176.812V49.6953ZM195.016 53.123C195.016 54.3926 194.557 55.3887 193.639 56.1113C192.721 56.834 191.454 57.1953 189.84 57.1953C188.225 57.1953 186.904 56.9447 185.875 56.4434V54.2363C186.526 54.5423 187.216 54.7832 187.945 54.959C188.681 55.1348 189.365 55.2227 189.996 55.2227C190.921 55.2227 191.601 55.0469 192.037 54.6953C192.48 54.3438 192.701 53.8717 192.701 53.2793C192.701 52.7454 192.499 52.293 192.096 51.9219C191.692 51.5508 190.859 51.1113 189.596 50.6035C188.294 50.0762 187.376 49.474 186.842 48.7969C186.308 48.1198 186.041 47.306 186.041 46.3555C186.041 45.1641 186.464 44.2266 187.311 43.543C188.157 42.8594 189.293 42.5176 190.719 42.5176C192.086 42.5176 193.447 42.8171 194.801 43.416L194.059 45.3203C192.789 44.7865 191.656 44.5195 190.66 44.5195C189.905 44.5195 189.332 44.6855 188.941 45.0176C188.551 45.3431 188.355 45.776 188.355 46.3164C188.355 46.6875 188.434 47.0065 188.59 47.2734C188.746 47.5339 189.003 47.7812 189.361 48.0156C189.719 48.25 190.364 48.5592 191.295 48.9434C192.343 49.3796 193.111 49.7865 193.6 50.1641C194.088 50.5417 194.446 50.9681 194.674 51.4434C194.902 51.9186 195.016 52.4785 195.016 53.123ZM208.971 42.7227V51.9609C208.971 53.0156 208.743 53.9401 208.287 54.7344C207.838 55.5221 207.184 56.1309 206.324 56.5605C205.471 56.9837 204.449 57.1953 203.258 57.1953C201.487 57.1953 200.11 56.7266 199.127 55.7891C198.144 54.8516 197.652 53.5625 197.652 51.9219V42.7227H199.996V51.7559C199.996 52.9342 200.27 53.8034 200.816 54.3633C201.363 54.9232 202.203 55.2031 203.336 55.2031C205.536 55.2031 206.637 54.0475 206.637 51.7363V42.7227H208.971ZM218.795 57L214.654 45.0762H214.576C214.687 46.847 214.742 48.5072 214.742 50.0566V57H212.623V42.7227H215.914L219.879 54.0801H219.938L224.02 42.7227H227.32V57H225.074V49.9395C225.074 49.2298 225.09 48.3053 225.123 47.166C225.162 46.0267 225.195 45.3366 225.221 45.0957H225.143L220.855 57H218.795Z" fill="#4F5665"/>
<path d="M93.9563 24C93.7729 24 93.6146 23.9417 93.4813 23.825C93.3646 23.6917 93.3063 23.5417 93.3063 23.375V21.6C93.3063 21.4833 93.3396 21.3083 93.4063 21.075C93.4729 20.825 93.6479 20.5917 93.9312 20.375L96.5313 17.825C97.8646 16.8083 98.9563 15.95 99.8063 15.25C100.673 14.5333 101.315 13.9 101.731 13.35C102.148 12.8 102.356 12.2833 102.356 11.8C102.356 11.2333 102.206 10.7667 101.906 10.4C101.623 10.0167 101.123 9.825 100.406 9.825C99.9229 9.825 99.5229 9.93333 99.2063 10.15C98.8896 10.35 98.6396 10.6167 98.4563 10.95C98.2896 11.2833 98.1729 11.625 98.1063 11.975C98.0396 12.1917 97.9229 12.3417 97.7563 12.425C97.6063 12.5083 97.4396 12.55 97.2563 12.55H94.1313C93.9813 12.55 93.8563 12.5 93.7563 12.4C93.6563 12.3 93.6063 12.175 93.6063 12.025C93.6229 11.225 93.7896 10.475 94.1063 9.775C94.4396 9.05833 94.8979 8.43333 95.4813 7.9C96.0813 7.36667 96.7896 6.95 97.6063 6.65C98.4396 6.33333 99.3729 6.175 100.406 6.175C101.823 6.175 103.023 6.40833 104.006 6.875C105.006 7.325 105.765 7.95833 106.281 8.775C106.798 9.575 107.056 10.5167 107.056 11.6C107.056 12.4167 106.873 13.1833 106.506 13.9C106.156 14.6 105.648 15.275 104.981 15.925C104.331 16.5583 103.556 17.2167 102.656 17.9L100.356 20.225H106.781C106.965 20.225 107.115 20.2833 107.231 20.4C107.365 20.5167 107.431 20.6667 107.431 20.85V23.375C107.431 23.5417 107.365 23.6917 107.231 23.825C107.115 23.9417 106.965 24 106.781 24H93.9563ZM118.168 24C118.002 24 117.852 23.9417 117.718 23.825C117.602 23.6917 117.543 23.5417 117.543 23.375V20.55H109.768C109.602 20.55 109.452 20.4917 109.318 20.375C109.202 20.2583 109.143 20.1083 109.143 19.925V17.55C109.143 17.4 109.168 17.2667 109.218 17.15C109.285 17.0167 109.352 16.8917 109.418 16.775L116.693 6.925C116.91 6.64167 117.218 6.5 117.618 6.5H121.268C121.435 6.5 121.577 6.55833 121.693 6.675C121.827 6.79167 121.893 6.94167 121.893 7.125V16.825H124.093C124.293 16.825 124.452 16.8917 124.568 17.025C124.685 17.1417 124.743 17.2833 124.743 17.45V19.925C124.743 20.1083 124.677 20.2583 124.543 20.375C124.427 20.4917 124.285 20.55 124.118 20.55H121.893V23.375C121.893 23.5417 121.827 23.6917 121.693 23.825C121.577 23.9417 121.435 24 121.268 24H118.168ZM113.443 17H117.643V11.1L113.443 17ZM126.463 26.1C126.313 26.1 126.18 26.0417 126.063 25.925C125.963 25.825 125.913 25.7083 125.913 25.575C125.913 25.4917 125.938 25.4083 125.988 25.325L134.438 4.95C134.505 4.81667 134.605 4.68333 134.738 4.55C134.871 4.41667 135.071 4.35 135.338 4.35H137.588C137.738 4.35 137.863 4.40833 137.963 4.525C138.063 4.625 138.113 4.74167 138.113 4.875C138.113 4.94167 138.096 5.025 138.063 5.125L129.563 25.5C129.513 25.6167 129.413 25.7417 129.263 25.875C129.13 26.025 128.93 26.1 128.663 26.1H126.463ZM142.217 24C142.067 24 141.942 23.95 141.842 23.85C141.742 23.7333 141.692 23.6 141.692 23.45C141.692 23.3833 141.709 23.3083 141.742 23.225L147.517 10.275H140.042C139.859 10.275 139.701 10.2167 139.567 10.1C139.451 9.96667 139.392 9.80833 139.392 9.625V7.125C139.392 6.94167 139.451 6.79167 139.567 6.675C139.701 6.55833 139.859 6.5 140.042 6.5H151.717C151.917 6.5 152.076 6.55833 152.192 6.675C152.309 6.79167 152.367 6.94167 152.367 7.125V9.35C152.367 9.6 152.342 9.80833 152.292 9.975C152.242 10.1417 152.176 10.3083 152.092 10.475L146.317 23.4C146.267 23.5 146.176 23.625 146.042 23.775C145.909 23.925 145.709 24 145.442 24H142.217Z" fill="#0B132A"/>
<rect y="4.5" width="55.4342" height="55" rx="27.5" fill="#FFECEC"/>
<mask id="mask0_45_6436" style="mask-type:alpha" maskUnits="userSpaceOnUse" x="9" y="26" width="25" height="25">
<path fill-rule="evenodd" clip-rule="evenodd" d="M9.28125 26.4062H33.5192V50.947H9.28125V26.4062Z" fill="white"/>
</mask>
<g mask="url(#mask0_45_6436)">
<path fill-rule="evenodd" clip-rule="evenodd" d="M11.3648 28.4908C11.4837 30.9906 12.0282 33.3794 12.9259 35.5843L16.5185 31.863L15.8674 28.4908H11.3648ZM24.4072 47.2377C26.5978 48.1575 28.9742 48.7162 31.4602 48.8376V44.5753L27.8357 43.495L24.4072 47.2377ZM33.5193 50.9472H32.4899C19.6927 50.9472 9.28125 40.4053 9.28125 27.4485V26.4062H17.5629L18.7467 32.5378L13.8668 37.5917C15.8304 41.2719 18.8265 44.308 22.4603 46.2982L27.194 41.1307L33.5193 43.0161V50.9472Z" fill="black"/>
</g>
<mask id="mask1_45_6436" style="mask-type:alpha" maskUnits="userSpaceOnUse" x="23" y="14" width="21" height="21">
<path fill-rule="evenodd" clip-rule="evenodd" d="M24.9207 14.5214C24.195 14.5214 23.6025 15.1207 23.6025 15.8554V33.813C23.6025 34.3398 24.195 34.6415 24.6119 34.3237L29.8876 30.2901H42.4825C43.2128 30.2901 43.7996 29.6966 43.7996 28.9566V15.8554C43.7996 15.1207 43.2128 14.5214 42.4825 14.5214H24.9207ZM31.8535 18.2312C31.8535 17.5491 32.4043 16.9915 33.0842 16.9915C33.7584 16.9915 34.3087 17.5491 34.3087 18.2312C34.3087 18.9191 33.7584 19.4767 33.0842 19.4767C32.4043 19.4767 31.8535 18.9191 31.8535 18.2312ZM31.5187 20.8577H34.6898V25.8293H36.4959V27.8257H30.9067V25.8293H32.7185V22.8542H31.5187V20.8577Z" fill="white"/>
</mask>
<g mask="url(#mask1_45_6436)">
<path fill-rule="evenodd" clip-rule="evenodd" d="M24.9207 14.5214C24.195 14.5214 23.6025 15.1207 23.6025 15.8554V33.813C23.6025 34.3398 24.195 34.6415 24.6119 34.3237L29.8876 30.2901H42.4825C43.2128 30.2901 43.7996 29.6966 43.7996 28.9566V15.8554C43.7996 15.1207 43.2128 14.5214 42.4825 14.5214H24.9207ZM31.8535 18.2312C31.8535 17.5491 32.4043 16.9915 33.0842 16.9915C33.7584 16.9915 34.3087 17.5491 34.3087 18.2312C34.3087 18.9191 33.7584 19.4767 33.0842 19.4767C32.4043 19.4767 31.8535 18.9191 31.8535 18.2312ZM31.5187 20.8577H34.6898V25.8293H36.4959V27.8257H30.9067V25.8293H32.7185V22.8542H31.5187V20.8577Z" fill="url(#paint0_linear_45_6436)"/>
</g>
<defs>
<linearGradient id="paint0_linear_45_6436" x1="23.6028" y1="34.4536" x2="43.7999" y2="34.4536" gradientUnits="userSpaceOnUse">
<stop stop-color="#FF7200"/>
<stop offset="1" stop-color="#FB9500"/>
</linearGradient>
</defs>
</svg>
