<svg width="19" height="20" viewBox="0 0 19 20" fill="none" xmlns="http://www.w3.org/2000/svg">
<path d="M10.3767 7.2876V7.28761L10.3786 7.28759C10.8224 7.28345 11.2498 7.45502 11.5676 7.76493C11.885 8.07438 12.0674 8.49678 12.0749 8.93991V18.324H6.90948V8.9399C6.91698 8.49676 7.09927 8.07437 7.4167 7.76496L7.41672 7.76493C7.73456 7.45504 8.16197 7.28344 8.60578 7.28759L8.60578 7.2876H8.60765H10.3692H10.3767ZM6.77262 7.112L6.77259 7.11202C6.27897 7.59147 5.99593 8.24721 5.98557 8.93525L5.98555 8.93525V8.93826V19.0328V19.2328H6.18555H12.8065H13.0065V19.0328V8.93826H13.0065L13.0064 8.93526C12.9961 8.24724 12.7131 7.59147 12.2194 7.11202L12.2194 7.112C11.7261 6.63302 11.0629 6.36941 10.3754 6.37889H10.3692H8.61662C7.92913 6.36939 7.2659 6.63303 6.77262 7.112Z" fill="#8492AA" stroke="#8492AA" stroke-width="0.4"/>
<path d="M11.3818 1.55126C11.887 2.0421 12.1764 2.71338 12.1867 3.41742L12.1868 3.42818L12.1866 3.42817C12.1499 4.36443 11.6293 5.21417 10.812 5.67202L10.812 5.67202C9.99461 6.12987 8.99796 6.12987 8.18055 5.67202L8.18053 5.67202C7.36327 5.21417 6.84263 4.36443 6.80601 3.42817L6.80559 3.41742L6.80588 3.41742C6.81618 2.71338 7.10558 2.04213 7.61074 1.55127L7.61075 1.55126C8.1151 1.06124 8.79308 0.791106 9.49628 0.800224C10.1995 0.791089 10.8775 1.06122 11.3818 1.55126ZM11.3818 1.55126C11.3818 1.55126 11.3818 1.55127 11.3818 1.55127L11.2425 1.6947L11.3818 1.55126ZM9.49373 1.70894L9.49373 1.709L9.49888 1.70894C9.95992 1.703 10.4046 1.8802 10.7353 2.20159L10.8682 2.06478L10.7353 2.20159C11.0655 2.52262 11.2553 2.96144 11.2628 3.42194C11.2623 4.05256 10.9256 4.63504 10.3796 4.95032C9.83304 5.26585 9.1596 5.26586 8.61305 4.95032C8.06697 4.63504 7.73034 4.05255 7.72979 3.42193C7.73732 2.96148 7.92704 2.52265 8.25735 2.20159C8.588 1.88021 9.03268 1.70301 9.49373 1.70894Z" fill="#8492AA" stroke="#8492AA" stroke-width="0.4"/>
<path d="M2.05129 8.0206C2.25557 7.82198 2.5299 7.71214 2.81466 7.71461L2.81466 7.71468H2.82228V7.71461C3.10707 7.71214 3.38139 7.82199 3.58565 8.02059L3.58565 8.0206C3.79066 8.21992 3.90841 8.49255 3.91301 8.77857V16.0955H1.72393V8.77858C1.72854 8.49251 1.84619 8.21992 2.05126 8.02063L2.05129 8.0206ZM2.81853 6.80591C2.29129 6.80031 1.78337 7.00336 1.4052 7.37084L1.40519 7.37084C1.02541 7.73988 0.807818 8.24457 0.800022 8.77409L0.8 8.77409V8.77704V16.8043V17.0043H1H4.63704H4.83704V16.8043V8.77704H4.83706L4.83702 8.77409C4.82922 8.24456 4.61161 7.73989 4.23185 7.37084L4.23185 7.37084C3.85367 7.00336 3.34572 6.80032 2.81853 6.80591Z" fill="#8492AA" stroke="#8492AA" stroke-width="0.4"/>
<path d="M2.81469 6.49801C2.34948 6.50413 1.90073 6.32533 1.56715 6.00101L1.56712 6.00097C1.23292 5.67587 1.0415 5.23125 1.03537 4.76499L1.0353 4.75947L1.03537 4.75947C1.0421 4.29363 1.23364 3.84954 1.56789 3.52498L2.81469 6.49801ZM2.81469 6.49801C3.27963 6.50352 3.72801 6.32465 4.0614 6.00036C4.39564 5.67554 4.58716 5.23122 4.5939 4.76522L4.59399 4.76522L4.59389 4.75919C4.58657 4.29348 4.39474 3.84979 4.0607 3.52543C3.77543 3.24834 3.40627 3.07758 3.01457 3.03752V3.03143L2.90852 3.0299C2.87688 3.02859 2.84514 3.02813 2.81331 3.02853C2.81284 3.02854 2.81237 3.02855 2.81191 3.02855L2.72341 3.02975M2.81469 6.49801L2.72341 3.02975M2.72341 3.02975L2.651 3.03072L2.6503 3.03413M2.72341 3.02975L2.6503 3.03413M2.6503 3.03413C2.24522 3.06688 1.862 3.23928 1.56793 3.52495L2.6503 3.03413ZM3.38432 4.193L3.38436 4.19304C3.53485 4.35067 3.61699 4.56158 3.61294 4.77957C3.60875 4.9976 3.51865 5.20517 3.36227 5.35706L3.36226 5.35707C3.20586 5.509 2.9957 5.59301 2.77768 5.59078C2.55967 5.58854 2.35133 5.50026 2.198 5.34512L2.19795 5.34506C2.04499 5.1904 1.95919 4.98154 1.95916 4.76399C1.96282 4.54149 2.05435 4.32965 2.21389 4.17469C2.37331 4.01986 2.58759 3.93456 2.80968 3.93736C3.02745 3.94348 3.2339 4.03534 3.38432 4.193Z" fill="#8492AA" stroke="#8492AA" stroke-width="0.4"/>
<path d="M16.1778 7.71468V7.71469L16.1793 7.71468C16.4647 7.71255 16.7393 7.8233 16.9433 8.02283C17.147 8.22207 17.2639 8.4937 17.2685 8.77859V16.0955H15.0794V8.77858C15.084 8.49256 15.2018 8.21994 15.4068 8.0206C15.6122 7.82082 15.8886 7.71086 16.1751 7.71467L16.1751 7.71468H16.1778H16.1778ZM14.7607 7.37084L14.7607 7.37084C14.3809 7.73988 14.1633 8.24457 14.1555 8.77409L14.1555 8.77409V8.77704V16.8043V17.0043H14.3555H18H18.2V16.8043V8.77704H18.2L18.1999 8.77409C18.1921 8.24456 17.9745 7.73989 17.5948 7.37084C17.2158 7.00245 16.7062 6.79935 16.1778 6.80596C15.6492 6.79934 15.1397 7.00248 14.7607 7.37084Z" fill="#8492AA" stroke="#8492AA" stroke-width="0.4"/>
<path d="M17.4246 3.52493C17.7589 3.84948 17.9505 4.29356 17.9572 4.75946L17.9572 4.76235C17.9572 5.39799 17.6181 5.98544 17.0675 6.30333L17.0675 6.30333C16.5171 6.62107 15.8388 6.62107 15.2883 6.30333L15.2883 6.30331C14.7379 5.98541 14.3986 5.39802 14.3986 4.76235V4.75921L14.3987 4.75921C14.406 4.29353 14.5978 3.84982 14.9318 3.52547L17.4246 3.52493ZM17.4246 3.52493C17.1392 3.24768 16.7698 3.07713 16.378 3.03737V3.03123L16.2703 3.02978C16.2396 3.02856 16.2088 3.02814 16.1779 3.02854L17.4246 3.52493ZM15.5773 4.17468C15.7367 4.01984 15.9509 3.93455 16.1731 3.93735C16.3907 3.94347 16.5972 4.03532 16.7476 4.19297L16.7476 4.19303C16.8981 4.35071 16.9803 4.56161 16.9762 4.77946C16.972 4.99753 16.8819 5.20513 16.7255 5.35705L16.7255 5.35706C16.5691 5.50899 16.3591 5.593 16.1409 5.59076C15.9229 5.58852 15.7146 5.50024 15.5614 5.34515L15.5613 5.34505C15.4084 5.19038 15.3226 4.9815 15.3225 4.76393C15.3261 4.54155 15.4177 4.32969 15.5773 4.17468ZM16.0204 3.03371C15.613 3.06542 15.2274 3.23836 14.9319 3.52544L16.0204 3.03371Z" fill="#8492AA" stroke="#8492AA" stroke-width="0.4"/>
</svg>
