<svg width="16" height="18" viewBox="0 0 16 18" fill="none" xmlns="http://www.w3.org/2000/svg">
<path fill-rule="evenodd" clip-rule="evenodd" d="M15.1111 5.41506L9.77779 0.686717C8.76553 -0.228906 7.23452 -0.228906 6.22226 0.686717L0.888967 5.41506C0.31781 5.93164 -0.00600664 6.67174 8.44087e-05 7.44663V15.3032C8.44087e-05 16.7926 1.19398 18 2.66673 18H13.3333C14.8061 18 16 16.7926 16 15.3032V7.43764C16.0035 6.66588 15.6799 5.92956 15.1111 5.41506ZM9.77779 16.2021H6.22226V11.7075C6.22226 11.2111 6.62023 10.8086 7.11114 10.8086H8.88891C9.37983 10.8086 9.77779 11.2111 9.77779 11.7075V16.2021ZM13.3333 16.2022C13.8242 16.2022 14.2222 15.7997 14.2222 15.3032V7.43764C14.2219 7.17944 14.1118 6.93386 13.92 6.76345L8.58669 2.04409C8.25113 1.74597 7.74892 1.74597 7.41336 2.04409L2.08007 6.76345C1.88826 6.93386 1.77817 7.17944 1.77785 7.43764V15.3032C1.77785 15.7997 2.17581 16.2022 2.66673 16.2022H4.44449V11.7075C4.44449 10.2181 5.63839 9.01076 7.11114 9.01076H8.88891C10.3617 9.01076 11.5556 10.2181 11.5556 11.7075V16.2022H13.3333Z" fill="white"/>
</svg>
