<svg width="32" height="32" viewBox="0 0 32 32" fill="none" xmlns="http://www.w3.org/2000/svg">
<mask id="mask0_45_7107" style="mask-type:alpha" maskUnits="userSpaceOnUse" x="0" y="0" width="32" height="32">
<path fill-rule="evenodd" clip-rule="evenodd" d="M0 0H32V32H0V0Z" fill="white"/>
</mask>
<g mask="url(#mask0_45_7107)">
<path fill-rule="evenodd" clip-rule="evenodd" d="M31.9999 29.0823V2.91751C31.9999 2.58188 31.942 2.26019 31.837 1.95995C31.4788 0.994898 30.5716 0.213202 29.5444 0.0373469L29.5272 0.03413C29.5229 0.0330577 29.5187 0.0330577 29.5144 0.0319855C29.3728 0.011612 29.2291 -0.000183105 29.0822 -0.000183105H2.91722C1.31307 -0.000183105 -0.000488281 1.31337 -0.000488281 2.91751V29.0823C-0.000488281 29.4169 0.0574155 29.7386 0.163572 30.0399C0.520646 31.0049 1.42781 31.7866 2.45506 31.9625C2.4615 31.9636 2.46686 31.9646 2.47222 31.9646C2.47651 31.9657 2.4808 31.9657 2.48616 31.9668C2.62663 31.9882 2.77139 32 2.91722 32H14.0841L3.43835 18.2941H9.10113L19.7479 32H23.1535L12.5067 18.2941H19.1625C20.3302 18.2941 21.1805 18.0153 21.7649 17.4373C22.3439 16.8626 22.6249 16.0208 22.6249 14.8703C22.6249 13.1943 22.1263 11.4808 18.4204 11.4808H7.21175L3.71501 6.97825H19.3115C21.7724 6.97825 23.7722 7.70633 25.2541 9.14427C26.7436 10.5919 27.4985 12.5423 27.4985 14.9443C27.4985 17.1349 26.8197 18.9482 25.4825 20.3293C24.5175 21.3265 23.2404 22.0299 21.6705 22.4331L28.8163 32H29.0822C30.6864 32 31.9999 30.6865 31.9999 29.0823Z" fill="#F17D21"/>
</g>
</svg>
