<svg width="20" height="20" viewBox="0 0 20 20" fill="none" xmlns="http://www.w3.org/2000/svg">
<path d="M19.0432 11.8692L16.8326 8.9991V8.98508L16.8074 8.94726C16.7493 8.86024 16.643 8.77978 16.5295 8.74909L13.2963 7.6221C13.8633 6.91135 14.1951 6.01621 14.1951 5.03488C14.1951 2.7279 12.3171 0.85 10.0102 0.85C7.70335 0.850142 5.8253 2.72803 5.8253 5.03488C5.8253 6.01619 6.15719 6.91133 6.7241 7.62209L3.49088 8.7491C3.37451 8.78074 3.2914 8.8644 3.23914 8.917C3.23655 8.91961 3.23403 8.92215 3.23159 8.92459L3.22463 8.93157L3.21865 8.93939L0.975886 11.8708C0.873044 12.0004 0.815633 12.2075 0.87211 12.3814C0.925916 12.566 1.061 12.7012 1.24501 12.7555L3.08959 13.4077L3.08946 17.0409C3.08946 17.284 3.24958 17.4952 3.46235 17.575L3.46234 17.575L3.46533 17.5761L9.79606 19.7978C9.83656 19.8158 9.87771 19.8222 9.90676 19.8251C9.93988 19.8284 9.9717 19.8283 9.99056 19.8283H9.99231C10.0114 19.8283 10.0422 19.8283 10.0744 19.8251C10.1034 19.8222 10.1446 19.8158 10.1851 19.7978L16.5136 17.5768C16.5139 17.5767 16.5143 17.5766 16.5147 17.5765C16.7588 17.4946 16.8917 17.2751 16.8917 17.0409L16.8915 13.4073L18.7362 12.7552C18.9263 12.6988 19.0535 12.5415 19.1059 12.3902C19.182 12.2077 19.1585 12.0128 19.0433 11.8691L19.0432 11.8692ZM10.0102 1.99657L10.0103 1.99657C11.6791 1.99644 13.0487 3.36618 13.0487 5.03507C13.0487 6.70396 11.6791 8.07358 10.0102 8.07358C8.34075 8.07358 6.97174 6.72301 6.97174 5.03507C6.97174 3.36619 8.34135 1.99657 10.0102 1.99657ZM11.5825 15.2712L15.7651 13.8082L15.765 16.6398L10.5736 18.4632V14.3395L10.8787 14.9801L10.8787 14.9801L10.8799 14.9826C10.9842 15.1915 11.1743 15.3018 11.3881 15.3018H11.3899C11.4089 15.3018 11.4398 15.3018 11.4719 15.2986C11.5009 15.2957 11.5421 15.2893 11.5825 15.2712ZM8.30008 14.021L2.38219 11.93L3.88279 9.97581L9.32979 11.8917L8.30008 14.021ZM9.12348 14.9776L9.42738 14.3395L9.42727 18.463L4.25557 16.6399V13.8086L8.41837 15.2712C8.45887 15.2892 8.50004 15.2956 8.52909 15.2985C8.56121 15.3017 8.59209 15.3017 8.61114 15.3017H8.6129C8.8242 15.3017 9.03797 15.1734 9.12348 14.9776ZM14.616 9.30574L10.0103 10.9186L5.40442 9.30574L7.66424 8.50908C8.32942 8.97178 9.143 9.21996 10.0102 9.21996C10.8819 9.21996 11.6757 8.95078 12.3534 8.50809L14.616 9.30574ZM17.6371 11.9303L11.7009 14.0211L10.6711 11.8917L16.1187 9.9756L17.6371 11.9303Z" fill="white" stroke="white" stroke-width="0.3"/>
<path d="M9.30743 6.28458L9.3074 6.28461L9.30943 6.28664C9.40322 6.38043 9.54577 6.45377 9.69509 6.45377C9.8329 6.45377 9.98234 6.40787 10.0852 6.28203L11.7554 4.53327L11.7555 4.53331L11.7578 4.53065C11.9475 4.31734 11.9532 3.99752 11.7299 3.79897L11.7299 3.79896C11.517 3.60964 11.1979 3.60362 10.9993 3.82569L9.71379 5.18566L9.05978 4.51392C8.86367 4.2954 8.52456 4.29509 8.32751 4.48972C8.10902 4.68623 8.1092 5.02588 8.30472 5.22265L9.30743 6.28458Z" fill="white" stroke="white" stroke-width="0.2"/>
</svg>
