<svg width="27" height="21" viewBox="0 0 27 21" fill="none" xmlns="http://www.w3.org/2000/svg">
<path d="M17.0526 21C23.3684 19.4211 27 15.1579 27 9C27 4.26316 25.1053 1.74171e-06 21 1.38281e-06C18.4737 1.16195e-06 16.4211 2.05262 16.4211 4.42105C16.4211 10.2632 22.7368 7.89473 22.7368 12.7895C22.7368 16.5789 20.3684 18.4737 17.0526 19.1053L17.0526 21ZM0.789473 21C7.10526 19.4211 10.5789 15.1579 10.5789 9C10.5789 4.26316 8.84211 3.19935e-07 4.57895 -5.27622e-08C2.05263 -2.7362e-07 -2.50917e-07 2.05262 -4.57971e-07 4.42105C-9.68704e-07 10.2632 6.31579 7.89473 6.31579 12.7895C6.31579 16.5789 3.94737 18.4737 0.789473 19.1053L0.789473 21Z" fill="white"/>
</svg>
