<svg width="133" height="22" viewBox="0 0 133 22" fill="none" xmlns="http://www.w3.org/2000/svg">
<path d="M10.8243 0L13.2545 7.46747H21.1188L14.7564 12.0826L17.1866 19.5501L10.8243 14.9349L4.46193 19.5501L6.89213 12.0826L0.529778 7.46747H8.39408L10.8243 0Z" fill="#FFA900"/>
<path d="M38.6583 0L41.0885 7.46747H48.9528L42.5904 12.0826L45.0206 19.5501L38.6583 14.9349L32.2959 19.5501L34.7261 12.0826L28.3638 7.46747H36.2281L38.6583 0Z" fill="#FFA900"/>
<path d="M66.4918 0L68.922 7.46747H76.7863L70.4239 12.0826L72.8541 19.5501L66.4918 14.9349L60.1294 19.5501L62.5596 12.0826L56.1973 7.46747H64.0616L66.4918 0Z" fill="#FFA900"/>
<path d="M91.233 0L93.6632 7.46747H101.527L95.1651 12.0826L97.5953 19.5501L91.233 14.9349L84.8706 19.5501L87.3008 12.0826L80.9385 7.46747H88.8028L91.233 0Z" fill="#FFA900"/>
<path d="M121.386 0L123.816 7.46747H131.68L125.318 12.0826L127.748 19.5501L121.386 14.9349L115.023 19.5501L117.454 12.0826L111.091 7.46747H118.956L121.386 0Z" fill="#FFA900"/>
</svg>
